<svg width="85" height="85" viewBox="0 0 85 85" fill="none" xmlns="http://www.w3.org/2000/svg">
<g clip-path="url(#clip0_22_74)">
<path d="M85 42.5C85 65.9721 65.9721 85 42.5 85C19.0279 85 0 65.9721 0 42.5C0 19.0279 19.0279 0 42.5 0C65.9721 0 85 19.0279 85 42.5ZM8.16285 42.5C8.16285 61.4639 23.5361 76.8372 42.5 76.8372C61.4639 76.8372 76.8372 61.4639 76.8372 42.5C76.8372 23.5361 61.4639 8.16285 42.5 8.16285C23.5361 8.16285 8.16285 23.5361 8.16285 42.5Z" fill="#C4C7C5"/>
<path d="M42.5 47C51.0604 47 58 40.0604 58 31.5C58 22.9396 51.0604 16 42.5 16C33.9396 16 27 22.9396 27 31.5C27 40.0604 33.9396 47 42.5 47Z" fill="#C4C7C5"/>
<path d="M42.5 0C65.9721 0 85 19.0279 85 42.5C85 65.9721 65.9721 85 42.5 85C19.0279 85 0 65.9721 0 42.5C0 19.0279 19.0279 0 42.5 0ZM42.5 8.16309C23.5361 8.16309 8.16309 23.5361 8.16309 42.5C8.16309 50.0399 10.595 57.0107 14.7148 62.6748C17.5786 60.0935 20.7971 57.915 24.2832 56.2119C30.0274 53.4056 36.3424 51.9647 42.7354 52.001C49.1285 52.0373 55.4275 53.5495 61.1396 56.4209C64.4646 58.0924 67.5376 60.1992 70.2842 62.6748C74.4042 57.0106 76.8369 50.0401 76.8369 42.5C76.8369 23.5361 61.4639 8.16309 42.5 8.16309Z" fill="#C4C7C5"/>
</g>
<defs>
<clipPath id="clip0_22_74">
<rect width="85" height="85" fill="white"/>
</clipPath>
</defs>
</svg>
